<svg width="65" height="39" viewBox="0 0 65 39" fill="none" xmlns="http://www.w3.org/2000/svg">
<path d="M10.888 38.912C10.3357 38.912 9.88801 38.4643 9.88801 37.912L9.888 6.08C9.888 4.97543 8.99257 4.08 7.888 4.08H0.37091C0.166062 4.08 0 3.91394 0 3.70909V3.70909C0 1.66062 1.66062 0 3.70909 0H32.3955C32.6003 0 32.7664 0.166062 32.7664 0.370909V0.370909C32.7664 2.41938 31.1058 4.08 29.0573 4.08H20.12C17.3586 4.08 15.12 6.31858 15.12 9.08L15.12 37.912C15.12 38.4643 14.6723 38.912 14.12 38.912H10.888Z" fill="white"/>
<path d="M29.5024 31.392C25.5344 31.392 22.4624 30.416 20.2864 28.464C18.1104 26.512 17.0224 23.52 17.0224 19.488C17.0224 15.84 17.9504 12.96 19.8064 10.848C21.6624 8.736 24.4784 7.68 28.2544 7.68C31.7104 7.68 34.3024 8.592 36.0304 10.416C37.7904 12.208 38.6704 14.528 38.6704 17.376V17.376C38.6704 19.7089 36.7792 21.6 34.4464 21.6H23.137C22.5391 21.6 22.0682 22.1239 22.2012 22.7068C22.5703 24.3241 23.308 25.4751 24.4144 26.16C25.7584 26.992 27.8064 27.408 30.5584 27.408C31.7104 27.408 32.8944 27.296 34.1104 27.072V27.072C35.664 26.7858 37.2784 27.9169 37.2784 29.4967V29.7337C37.2784 29.9246 37.1657 30.0983 36.9887 30.17C36.0329 30.5575 34.9455 30.8528 33.7264 31.056C32.4144 31.28 31.0064 31.392 29.5024 31.392ZM22.3558 15.22C21.9206 16.8187 23.3575 18.192 25.0144 18.192H32.4784C33.3532 18.192 34.0624 17.4828 34.0624 16.608V16.608C34.0624 15.04 33.6304 13.824 32.7664 12.96C31.9024 12.064 30.4464 11.616 28.3984 11.616C25.9664 11.616 24.2864 12.144 23.3584 13.2C22.914 13.7238 22.5798 14.3971 22.3558 15.22Z" fill="white"/>
<path d="M52.356 31.392C48.26 31.392 45.252 30.368 43.332 28.32C41.444 26.272 40.5 23.344 40.5 19.536C40.5 15.728 41.46 12.8 43.38 10.752C45.3 8.704 48.292 7.68 52.356 7.68C56.452 7.68 59.46 8.704 61.38 10.752C63.3 12.8 64.26 15.728 64.26 19.536C64.26 23.344 63.3 26.272 61.38 28.32C59.492 30.368 56.484 31.392 52.356 31.392ZM52.356 26.976C54.756 26.976 56.452 26.4 57.444 25.248C58.468 24.064 58.98 22.16 58.98 19.536C58.98 16.912 58.468 15.024 57.444 13.872C56.452 12.72 54.756 12.144 52.356 12.144C49.988 12.144 48.26 12.72 47.268 13.872C46.276 15.024 45.78 16.912 45.78 19.536C45.78 22.16 46.276 24.064 47.268 25.248C48.292 26.4 49.988 26.976 52.356 26.976Z" fill="white"/>
</svg>
