<svg xmlns="http://www.w3.org/2000/svg" version="1.0" preserveAspectRatio="xMidYMid meet" viewBox="125 151 232.35 181.65">
 <style>
    g {
      fill: #000000;
    }
    @media (prefers-color-scheme: dark) {
      g {
        fill: white;
      }
    }
  </style>
 <g transform="translate(0.000000,500.000000) scale(0.100000,-0.100000)" fill="#000000" stroke="none"><path d="M1366 3477 c-10 -7 -17 -22 -14 -33 3 -16 14 -20 88 -24 l85 -5 3 -147 3 -148 34 0 34 0 3 76 3 75 370 -791 c204 -436 375 -796 382 -802 8 -6 18 -6 29 0 10 6 129 307 315 797 165 434 301 791 304 793 3 3 5 -330 5 -741 l0 -746 -66 -3 c-74 -3 -100 -22 -75 -52 12 -14 55 -16 352 -16 314 0 339 1 348 18 6 11 6 24 0 35 -8 14 -25 17 -89 17 l-80 0 0 820 0 819 72 3 c63 3 73 6 76 22 8 42 -18 46 -274 46 -216 0 -244 -2 -262 -17 -12 -11 -109 -254 -247 -618 -125 -330 -230 -606 -234 -612 -4 -8 -131 254 -296 608 -231 495 -295 623 -313 630 -13 5 -139 9 -281 9 -197 0 -261 -3 -275 -13z m822 -701 l301 -645 -55 -148 c-31 -81 -59 -151 -62 -155 -5 -5 -721 1506 -750 1583 -2 5 57 9 130 9 l134 0 302 -644z m1132 -176 l0 -820 -120 0 -120 0 0 820 0 820 120 0 120 0 0 -820z"></path><path d="M1481 3002 c-45 -22 -70 -58 -77 -107 -5 -38 -5 -38 8 -16 24 44 64 65 134 69 71 5 146 -17 164 -46 8 -15 9 -14 10 5 0 29 -46 83 -87 99 -45 19 -111 17 -152 -4z"></path><path d="M1714 2847 c-15 -52 -79 -79 -177 -75 -75 3 -80 5 -109 38 l-31 34 7 -30 c18 -73 73 -114 154 -114 97 0 152 44 166 132 8 50 3 58 -10 15z"></path><path d="M1462 2603 c-45 -22 -65 -64 -60 -125 12 -117 135 -183 245 -131 93 44 107 194 24 250 -19 13 -41 23 -50 23 -9 0 -3 -7 13 -15 16 -9 35 -23 42 -33 18 -23 17 -86 -1 -121 -16 -31 -77 -61 -125 -61 l-30 0 0 115 c0 126 -1 127 -58 98z m48 -123 c0 -49 -4 -90 -9 -90 -4 0 -23 10 -42 23 -65 44 -65 121 1 144 19 7 38 12 43 12 4 1 7 -39 7 -89z"></path><path d="M1298 2248 l-48 -10 0 -198 c0 -110 3 -201 8 -203 4 -3 30 -8 57 -11 49 -7 49 -6 20 7 -49 23 -68 52 -73 112 l-4 55 221 0 c221 0 222 0 231 -22 6 -16 9 2 8 62 0 50 -3 75 -7 60 l-7 -25 -222 -3 -222 -2 0 40 c0 66 23 108 72 130 47 21 39 23 -34 8z"></path><path d="M1528 1853 l-3 -68 -99 -5 c-78 -4 -101 -9 -109 -22 -8 -12 -7 -21 2 -32 12 -14 47 -16 262 -16 228 0 249 1 258 18 6 11 6 24 0 35 -9 15 -26 17 -124 17 l-115 0 0 70 0 70 -35 0 -34 0 -3 -67z"></path></g></svg>