<svg xmlns="http://www.w3.org/2000/svg" xmlns:xlink="http://www.w3.org/1999/xlink" id="visual" version="1.1" viewBox="0 359 900 242"><path d="M0 403L21.5 400.2C43 397.3 86 391.7 128.8 397C171.7 402.3 214.3 418.7 257.2 423.2C300 427.7 343 420.3 385.8 406.8C428.7 393.3 471.3 373.7 514.2 376.2C557 378.7 600 403.3 642.8 404.5C685.7 405.7 728.3 383.3 771.2 371.8C814 360.3 857 359.7 878.5 359.3L900 359L900 601L878.5 601C857 601 814 601 771.2 601C728.3 601 685.7 601 642.8 601C600 601 557 601 514.2 601C471.3 601 428.7 601 385.8 601C343 601 300 601 257.2 601C214.3 601 171.7 601 128.8 601C86 601 43 601 21.5 601L0 601Z" fill="#2F2F2F"/><path d="M0 465L21.5 466C43 467 86 469 128.8 466.2C171.7 463.3 214.3 455.7 257.2 452.2C300 448.7 343 449.3 385.8 452.3C428.7 455.3 471.3 460.7 514.2 456C557 451.3 600 436.7 642.8 437.2C685.7 437.7 728.3 453.3 771.2 455.5C814 457.7 857 446.3 878.5 440.7L900 435L900 601L878.5 601C857 601 814 601 771.2 601C728.3 601 685.7 601 642.8 601C600 601 557 601 514.2 601C471.3 601 428.7 601 385.8 601C343 601 300 601 257.2 601C214.3 601 171.7 601 128.8 601C86 601 43 601 21.5 601L0 601Z" fill="#282828"/><path d="M0 454L21.5 453.5C43 453 86 452 128.8 454.5C171.7 457 214.3 463 257.2 465C300 467 343 465 385.8 472C428.7 479 471.3 495 514.2 492.2C557 489.3 600 467.7 642.8 456.7C685.7 445.7 728.3 445.3 771.2 451.3C814 457.3 857 469.7 878.5 475.8L900 482L900 601L878.5 601C857 601 814 601 771.2 601C728.3 601 685.7 601 642.8 601C600 601 557 601 514.2 601C471.3 601 428.7 601 385.8 601C343 601 300 601 257.2 601C214.3 601 171.7 601 128.8 601C86 601 43 601 21.5 601L0 601Z" fill="#222222"/><path d="M0 483L21.5 485C43 487 86 491 128.8 490.8C171.7 490.7 214.3 486.3 257.2 492.7C300 499 343 516 385.8 523C428.7 530 471.3 527 514.2 523.2C557 519.3 600 514.7 642.8 515.7C685.7 516.7 728.3 523.3 771.2 527.3C814 531.3 857 532.7 878.5 533.3L900 534L900 601L878.5 601C857 601 814 601 771.2 601C728.3 601 685.7 601 642.8 601C600 601 557 601 514.2 601C471.3 601 428.7 601 385.8 601C343 601 300 601 257.2 601C214.3 601 171.7 601 128.8 601C86 601 43 601 21.5 601L0 601Z" fill="#1B1B1B"/><path d="M0 531L21.5 530.5C43 530 86 529 128.8 533.8C171.7 538.7 214.3 549.3 257.2 557C300 564.7 343 569.3 385.8 569.3C428.7 569.3 471.3 564.7 514.2 561.5C557 558.3 600 556.7 642.8 554.5C685.7 552.3 728.3 549.7 771.2 547.8C814 546 857 545 878.5 544.5L900 544L900 601L878.5 601C857 601 814 601 771.2 601C728.3 601 685.7 601 642.8 601C600 601 557 601 514.2 601C471.3 601 428.7 601 385.8 601C343 601 300 601 257.2 601C214.3 601 171.7 601 128.8 601C86 601 43 601 21.5 601L0 601Z" fill="#131313"/></svg>